<svg width="120" height="120" viewBox="0 0 120 120" fill="none" xmlns="http://www.w3.org/2000/svg">
  <!-- Fondo circular con gradiente suave -->
  <circle cx="60" cy="60" r="58" fill="url(#bgGradient)" stroke="url(#borderGradient)" stroke-width="4"/>
  
  <!-- Elemento central - Letra S estilizada -->
  <path d="M35 40 Q35 25 50 25 Q65 25 65 40 Q65 55 50 55 Q35 55 35 70 Q35 85 50 85 Q65 85 65 70 Q65 55 80 55 Q95 55 95 70 Q95 85 80 85 Q65 85 65 95" 
        fill="none" 
        stroke="url(#mainGradient)" 
        stroke-width="6" 
        stroke-linecap="round" 
        stroke-linejoin="round"/>
  
  <!-- Elemento secundario - Representación de datos/gráfico -->
  <g transform="translate(72, 30)">
    <rect x="0" y="8" width="3" height="20" fill="url(#dataGradient)" rx="1.5"/>
    <rect x="6" y="4" width="3" height="24" fill="url(#dataGradient)" rx="1.5"/>
    <rect x="12" y="12" width="3" height="16" fill="url(#dataGradient)" rx="1.5"/>
    <rect x="18" y="0" width="3" height="28" fill="url(#dataGradient)" rx="1.5"/>
  </g>
  
  <!-- Gradientes -->
  <defs>
    <linearGradient id="bgGradient" x1="0%" y1="0%" x2="100%" y2="100%">
      <stop offset="0%" style="stop-color:#1e293b;stop-opacity:1" />
      <stop offset="50%" style="stop-color:#334155;stop-opacity:1" />
      <stop offset="100%" style="stop-color:#475569;stop-opacity:1" />
    </linearGradient>
    
    <linearGradient id="borderGradient" x1="0%" y1="0%" x2="100%" y2="100%">
      <stop offset="0%" style="stop-color:#64748b;stop-opacity:1" />
      <stop offset="100%" style="stop-color:#94a3b8;stop-opacity:1" />
    </linearGradient>
    
    <linearGradient id="mainGradient" x1="0%" y1="0%" x2="100%" y2="100%">
      <stop offset="0%" style="stop-color:#e2e8f0;stop-opacity:1" />
      <stop offset="50%" style="stop-color:#cbd5e1;stop-opacity:1" />
      <stop offset="100%" style="stop-color:#94a3b8;stop-opacity:1" />
    </linearGradient>
    
    <linearGradient id="dataGradient" x1="0%" y1="0%" x2="0%" y2="100%">
      <stop offset="0%" style="stop-color:#3b82f6;stop-opacity:1" />
      <stop offset="100%" style="stop-color:#1d4ed8;stop-opacity:1" />
    </linearGradient>
  </defs>
</svg>
